<?xml version="1.0" encoding="utf-8"?>
<!-- Generator: Adobe Illustrator 27.9.0, SVG Export Plug-In . SVG Version: 6.00 Build 0)  -->
<svg version="1.1" id="Layer_1" xmlns="http://www.w3.org/2000/svg" xmlns:xlink="http://www.w3.org/1999/xlink" x="0px" y="0px"
	 width="189.23px" height="50px" viewBox="0 0 189.23 50" style="enable-background:new 0 0 189.23 50;" xml:space="preserve">
<style type="text/css">
	.st0{fill:#CC0033;}
</style>
<g>
	<rect x="66.03" width="1.3" height="50"/>
	<path class="st0" d="M40.37,26.06l0.8-0.3C47.78,23.27,51,19.5,51,14.25c0-3.64-1.46-6.61-4.45-9.07C43.38,2.61,39.02,1.3,33.6,1.3
		c0,0-30.99,0-32.29,0v6.87c0.2,0,1.64,0,3.76,0v33.67H1.3v6.85h22.02v-6.85h-3.89V27.33h7.98l9.13,14.51h-5.14v6.85h23.85v-6.85
		h-4.51L40.37,26.06z M34.08,18.82l-0.02,0.01c-1.7,1.33-4.21,2-7.46,2h-7.16V8.17c4.88,0,8.83,0,8.83,0c2.76,0,4.91,0.77,6.37,2.29
		c1.07,1.06,1.61,2.39,1.61,3.97C36.25,16.12,35.52,17.6,34.08,18.82"/>
	<path d="M28.28,8.17c0,0-3.95,0-8.84,0v12.66h7.16c3.25,0,5.76-0.67,7.46-2l0.02-0.01c1.44-1.21,2.18-2.69,2.18-4.39
		c0-1.58-0.54-2.91-1.61-3.97C33.18,8.94,31.03,8.17,28.28,8.17 M33.26,17.8L33.26,17.8c-1.47,1.15-3.71,1.73-6.66,1.73h-5.86V9.47
		l7.53,0c2.39,0,4.22,0.64,5.43,1.89l0.02,0.02c0.82,0.82,1.22,1.81,1.22,3.04C34.95,15.73,34.4,16.84,33.26,17.8"/>
	<path d="M51.46,40.54L42.35,26.7c6.61-2.68,9.95-6.87,9.95-12.45c0-4.05-1.61-7.35-4.93-10.08C43.96,1.4,39.33,0,33.6,0L0,0v9.46
		c0,0,2.36,0.01,3.76,0.01v31.07H0V50h24.63v-9.46h-3.89v-11.9h5.96l7.49,11.9h-4.08V50h26.45v-9.46H51.46z M55.27,48.7H31.42v-6.85
		h5.14l-9.13-14.51h-7.98v14.51h3.89v6.85H1.3v-6.85h3.76V8.17c-2.12,0-3.56,0-3.76,0V1.3c1.31,0,32.3,0,32.3,0
		c5.42,0,9.78,1.3,12.95,3.87C49.54,7.64,51,10.61,51,14.25c0,5.26-3.22,9.02-9.83,11.51l-0.8,0.3l10.39,15.78h4.51V48.7z"/>
	<path d="M84.93,21.93c-0.65-1.1-0.91-1.56-1.56-2.74c-1.66-3-2.16-3.82-2.76-4.08c-0.17-0.07-0.31-0.12-0.53-0.14v6.96h-3.29V5.25
		h6.22c2.95,0,4.9,1.97,4.9,4.9c0,2.5-1.66,4.56-3.72,4.61c0.34,0.26,0.48,0.41,0.7,0.7c0.86,1.08,3.41,5.42,4.01,6.48H84.93z
		 M83.17,8.17c-0.38-0.14-1.08-0.24-1.9-0.24h-1.2v4.51h1.13c1.44,0,2.06-0.14,2.52-0.55c0.41-0.38,0.65-0.98,0.65-1.68
		C84.37,9.18,83.97,8.46,83.17,8.17z"/>
	<path d="M102.11,19.1c-0.43,1.32-2.06,3.14-5.66,3.14c-2.54,0-4.42-0.77-5.35-2.23c-0.55-0.86-0.72-1.54-0.72-3.14V5.25h3.43v10.97
		c0,1.03,0.1,1.63,0.29,1.99c0.38,0.74,1.18,1.15,2.28,1.15c1.46,0,2.4-0.72,2.54-1.94c0.05-0.36,0.05-0.6,0.05-1.49V5.25h3.41
		v11.23C102.38,18.06,102.35,18.38,102.11,19.1z"/>
	<path d="M115.54,8.03h-3.98v13.9h-3.41V8.03h-4.08V5.25h12.03L115.54,8.03z"/>
	<path d="M123.58,22.12c-2.5,0-4.34-0.82-5.69-2.54c-1.22-1.56-1.78-3.34-1.78-5.83c0-3.53,1.15-6.02,3.48-7.58
		c1.22-0.82,2.47-1.18,4.06-1.18c2.02,0,3.84,0.65,5.3,1.92l-1.78,2.09c-1.08-0.89-2.21-1.3-3.48-1.3c-0.98,0-1.82,0.29-2.4,0.84
		c-1.13,1.08-1.42,2.88-1.42,5.38c0,2.38,0.41,3.91,1.25,4.75c0.62,0.6,1.54,0.94,2.62,0.94c0.74,0,1.34-0.12,1.9-0.41V15.4h-2.54
		l-0.43-2.74h6.46v7.97C127.42,21.64,125.55,22.12,123.58,22.12z"/>
	<path d="M131.6,21.93V5.25h9.5l-0.43,2.74H135v3.86h4.73v2.74H135v4.46h6.31v2.88H131.6z"/>
	<path d="M151.56,21.93c-0.65-1.1-0.91-1.56-1.56-2.74c-1.66-3-2.16-3.82-2.76-4.08c-0.17-0.07-0.31-0.12-0.53-0.14v6.96h-3.29V5.25
		h6.22c2.95,0,4.9,1.97,4.9,4.9c0,2.5-1.66,4.56-3.72,4.61c0.34,0.26,0.48,0.41,0.7,0.7c0.86,1.08,3.41,5.42,4.01,6.48H151.56z
		 M149.81,8.17c-0.38-0.14-1.08-0.24-1.9-0.24h-1.2v4.51h1.13c1.44,0,2.06-0.14,2.52-0.55c0.41-0.38,0.65-0.98,0.65-1.68
		C151.01,9.18,150.6,8.46,149.81,8.17z"/>
	<path d="M161.76,22.29c-1.9,0-4.01-0.55-5.69-1.51l1.25-2.62c1.56,0.82,2.9,1.34,4.58,1.34c1.92,0,2.93-0.79,2.93-2.28
		c0-1.08-0.7-1.75-2.18-2.16l-1.85-0.5c-1.66-0.46-2.69-1.1-3.29-2.11c-0.46-0.74-0.7-1.61-0.7-2.54c0-3.05,2.45-5.16,5.98-5.16
		c2.04,0,4.1,0.62,5.57,1.68l-1.58,2.4c-1.51-0.91-2.64-1.27-3.89-1.27c-1.37,0-2.33,0.79-2.33,1.92c0,0.86,0.46,1.3,1.85,1.68
		l2.02,0.55c2.74,0.74,4.22,2.5,4.22,4.97C168.65,20.06,165.91,22.29,161.76,22.29z"/>
	<g>
		<path d="M82.19,28.84h-1.68v6.75h-1.9v-6.75h-1.7v-1.64h5.52L82.19,28.84z"/>
		<path d="M86.59,35.59v-3.54h-1.5v3.54h-1.88v-8.38h1.88v3.09h1.5v-3.09h1.88v8.38H86.59z"/>
		<path d="M90.21,35.59v-8.38h4.31l-0.19,1.65h-2.24v1.58h1.83v1.61h-1.83v1.86h2.45v1.68H90.21z"/>
		<path d="M100.56,35.74c-1.08,0-2.01-0.31-2.71-0.79l0.79-1.5c0.52,0.39,1.17,0.69,1.9,0.69c0.66,0,1.09-0.32,1.09-0.89
			c0-0.49-0.46-0.7-1.03-0.91l-0.13-0.05c-1.03-0.39-2.2-0.79-2.2-2.55c0-1.6,1.18-2.66,2.78-2.66c1,0,1.92,0.3,2.56,0.75
			l-0.85,1.38c-0.48-0.29-0.99-0.55-1.54-0.55c-0.49,0-0.9,0.23-0.9,0.71c0,0.61,0.58,0.81,1.26,1.03l0.18,0.06
			c0.94,0.32,1.97,0.78,1.97,2.48C103.74,34.75,102.32,35.74,100.56,35.74z"/>
		<path d="M109.62,28.84h-1.68v6.75h-1.9v-6.75h-1.7v-1.64h5.52L109.62,28.84z"/>
		<path d="M113.85,35.59l-0.4-1.67h-1.8l-0.41,1.67h-1.98l2.36-8.38h2.04l2.21,8.38H113.85z M112.73,30.53
			c-0.08-0.41-0.13-0.83-0.14-1.18h-0.02c-0.01,0.35-0.07,0.77-0.16,1.18l-0.38,1.92h1.09L112.73,30.53z"/>
		<path d="M120.85,28.84h-1.68v6.75h-1.9v-6.75h-1.7v-1.64h5.52L120.85,28.84z"/>
		<path d="M121.88,35.59v-8.38h4.31l-0.19,1.65h-2.24v1.58h1.83v1.61h-1.83v1.86h2.45v1.68H121.88z"/>
		<path d="M135.69,33.01c0,0.72-0.04,1.05-0.18,1.38c-0.3,0.7-1.13,1.35-2.57,1.35c-1.15,0-1.96-0.35-2.39-1.05
			c-0.28-0.46-0.36-0.66-0.36-1.78v-5.7h1.89v5.67c0,0.46,0.06,0.81,0.24,1.02c0.13,0.17,0.35,0.26,0.64,0.26
			c0.3,0,0.51-0.07,0.64-0.23c0.17-0.19,0.23-0.53,0.23-1.02v-5.7h1.88V33.01z"/>
		<path d="M140.91,35.59l-1.29-2.91c-0.19-0.43-0.4-1.03-0.57-1.58c0.05,0.32,0.1,1.09,0.1,1.7v2.79h-1.78v-8.38h1.8l1.34,2.87
			c0.2,0.45,0.42,1.03,0.6,1.6c-0.05-0.49-0.06-1.32-0.06-1.88v-2.6h1.79v8.38H140.91z"/>
		<path d="M144.59,35.59v-8.38h1.89v8.38H144.59z"/>
		<path d="M151.67,35.59h-2.13l-2.23-8.38h2.08l0.87,4.32c0.11,0.52,0.2,0.9,0.34,1.62h0.02c0.12-0.72,0.24-1.08,0.36-1.62l1-4.32
			h1.98L151.67,35.59z"/>
		<path d="M154.81,35.59v-8.38h4.31l-0.19,1.65h-2.24v1.58h1.83v1.61h-1.83v1.86h2.45v1.68H154.81z"/>
		<path d="M163.92,35.59l-0.75-2.32c-0.28-0.87-0.48-0.99-0.89-0.99v3.31h-1.88v-8.38h2.36c1.11,0,1.84,0.24,2.3,0.65
			c0.49,0.43,0.67,1.05,0.67,1.74c0,1.4-0.73,2.07-1.44,2.26l-0.05,0.01c0.25,0.08,0.57,0.47,0.75,0.9
			c0.26,0.64,0.89,2.19,1.13,2.81H163.92z M163.44,29.03c-0.16-0.13-0.38-0.18-0.7-0.18h-0.46v1.89h0.47c0.34,0,0.57-0.08,0.71-0.24
			c0.16-0.18,0.22-0.44,0.22-0.77C163.68,29.39,163.59,29.16,163.44,29.03z"/>
		<path d="M169.43,35.74c-1.08,0-2.01-0.31-2.71-0.79l0.79-1.5c0.52,0.39,1.17,0.69,1.9,0.69c0.66,0,1.09-0.32,1.09-0.89
			c0-0.49-0.46-0.7-1.03-0.91l-0.13-0.05c-1.03-0.39-2.2-0.79-2.2-2.55c0-1.6,1.18-2.66,2.78-2.66c1,0,1.92,0.3,2.56,0.75
			l-0.85,1.38c-0.48-0.29-0.99-0.55-1.54-0.55c-0.49,0-0.9,0.23-0.9,0.71c0,0.61,0.58,0.81,1.26,1.03l0.18,0.06
			c0.94,0.32,1.97,0.78,1.97,2.48C172.6,34.75,171.18,35.74,169.43,35.74z"/>
		<path d="M173.75,35.59v-8.38h1.89v8.38H173.75z"/>
		<path d="M182.06,28.84h-1.68v6.75h-1.9v-6.75h-1.7v-1.64h5.52L182.06,28.84z"/>
		<path d="M186.9,32.57v3.02h-1.92v-2.98l-2.25-5.4h2.24l0.71,2.37c0.07,0.23,0.22,0.78,0.31,1.22c0.11-0.45,0.26-1.03,0.31-1.22
			l0.71-2.37h2.23L186.9,32.57z"/>
	</g>
	<g>
		<path d="M82.34,46.63c-0.51,0.58-1.24,0.94-2.27,0.94c-0.9,0-1.64-0.29-2.18-0.82c-0.73-0.71-1.13-1.86-1.13-3.31
			c0-2.98,1.34-4.55,3.26-4.55c0.94,0,1.64,0.31,2.15,0.79c0.84,0.81,1.17,2.08,1.17,3.22C83.34,44.37,83.1,45.76,82.34,46.63z
			 M80.81,40.75c-0.19-0.23-0.45-0.3-0.77-0.3c-0.25,0-0.52,0.12-0.67,0.34c-0.35,0.48-0.49,1.31-0.49,2.39
			c0,1.18,0.12,1.91,0.36,2.32c0.2,0.36,0.48,0.48,0.84,0.48c0.4,0,0.69-0.14,0.88-0.55c0.2-0.43,0.3-1.14,0.3-2.27
			C81.25,41.79,81.11,41.1,80.81,40.75z"/>
		<path d="M88.65,40.7H86.6v1.58h1.65v1.6H86.6v3.55h-1.88v-8.38h4.11L88.65,40.7z"/>
		<path d="M96.05,47.43l-1.29-2.91c-0.19-0.43-0.4-1.03-0.57-1.58c0.05,0.32,0.1,1.09,0.1,1.7v2.79h-1.78v-8.38h1.8l1.34,2.87
			c0.2,0.45,0.42,1.03,0.6,1.6c-0.05-0.49-0.06-1.32-0.06-1.88v-2.6h1.79v8.38H96.05z"/>
		<path d="M99.73,47.43v-8.38h4.31l-0.19,1.65h-2.24v1.58h1.83v1.61h-1.83v1.86h2.45v1.68H99.73z"/>
		<path d="M112.23,47.43h-2.25l-0.54-4.01c-0.07-0.52-0.14-0.9-0.18-1.43h-0.01c-0.02,0.53-0.1,0.9-0.17,1.43l-0.58,4.01h-2.3
			l-1.6-8.38h2.03l0.57,3.86c0.08,0.55,0.16,1.02,0.22,1.7h0.01c0.05-0.58,0.13-1.28,0.19-1.68l0.6-3.87h2.13l0.61,3.9
			c0.06,0.41,0.14,1.09,0.19,1.68h0.01c0.06-0.67,0.14-1.13,0.22-1.7l0.52-3.89h2.06L112.23,47.43z"/>
		<path d="M119.58,45.97c0,1.08,0,1.15-0.05,1.44c-0.19,1.19-1.02,1.94-1.91,2.3l-0.89-1.02c0.46-0.35,0.7-0.6,0.83-0.97
			c0.13-0.37,0.14-0.88,0.14-1.73v-6.94h1.88V45.97z"/>
		<path d="M121.32,47.43v-8.38h4.31l-0.19,1.65h-2.24v1.58h1.83v1.61h-1.83v1.86h2.45v1.68H121.32z"/>
		<path d="M130.43,47.43l-0.75-2.32c-0.28-0.87-0.48-0.99-0.89-0.99v3.31h-1.88v-8.38h2.36c1.11,0,1.84,0.24,2.3,0.65
			c0.49,0.43,0.67,1.05,0.67,1.74c0,1.4-0.73,2.07-1.44,2.26l-0.05,0.01c0.25,0.08,0.57,0.47,0.75,0.9
			c0.26,0.64,0.89,2.19,1.13,2.81H130.43z M129.95,40.86c-0.16-0.13-0.38-0.18-0.7-0.18h-0.46v1.89h0.47c0.34,0,0.57-0.08,0.71-0.24
			c0.16-0.18,0.22-0.44,0.22-0.77C130.19,41.22,130.1,40.99,129.95,40.86z"/>
		<path d="M135.94,47.57c-1.08,0-2.01-0.31-2.71-0.79l0.79-1.5c0.52,0.39,1.17,0.69,1.9,0.69c0.66,0,1.09-0.32,1.09-0.89
			c0-0.49-0.46-0.7-1.03-0.91l-0.13-0.05c-1.03-0.39-2.2-0.79-2.2-2.55c0-1.6,1.18-2.66,2.78-2.66c1,0,1.92,0.3,2.56,0.75
			l-0.85,1.38c-0.48-0.29-0.99-0.55-1.54-0.55c-0.49,0-0.9,0.23-0.9,0.71c0,0.61,0.58,0.81,1.26,1.03l0.18,0.06
			c0.94,0.32,1.97,0.78,1.97,2.48C139.11,46.58,137.69,47.57,135.94,47.57z"/>
		<path d="M140.25,47.43v-8.38h4.31l-0.19,1.65h-2.24v1.58h1.83v1.61h-1.83v1.86h2.45v1.68H140.25z"/>
		<path d="M149.24,44.41v3.02h-1.92v-2.98l-2.25-5.4h2.24l0.71,2.37c0.07,0.23,0.22,0.78,0.31,1.22c0.11-0.45,0.26-1.03,0.31-1.22
			l0.71-2.37h2.23L149.24,44.41z"/>
	</g>
</g>
</svg>
